<?xml version="1.0" encoding="utf-8"?>
<!-- Generator: Adobe Illustrator 24.0.3, SVG Export Plug-In . SVG Version: 6.00 Build 0)  -->
<svg version="1.1" id="Layer_1" xmlns="http://www.w3.org/2000/svg" xmlns:xlink="http://www.w3.org/1999/xlink" x="0px" y="0px"
	 viewBox="0 0 155.6 87.8" style="enable-background:new 0 0 155.6 87.8;" xml:space="preserve">
<style type="text/css">
	.st0{fill:#D23A07;}
</style>
<g>
	<path class="st0" d="M2,85.3c-0.6-0.6-0.9-1.3-0.9-2.1l0-77.9c0-0.9,0.3-1.6,0.8-2.2c0.6-0.6,1.3-0.9,2.2-0.9l31.6,0
		c11.8,0,21,2.8,27.6,8.5c6.6,5.6,10,13.7,10.3,24.3c0.1,2.3,0.1,5.4,0.1,9.2s0,6.9-0.1,9.1c-0.8,21.9-13.2,32.9-37.3,32.9l-32.2,0
		C3.3,86.2,2.6,85.9,2,85.3z M35.7,68.2c5,0,8.8-1.2,11.2-3.6c2.4-2.4,3.7-6.2,3.8-11.5c0.2-2.3,0.2-5.3,0.2-9
		c0-3.7-0.1-6.6-0.2-8.9c-0.2-5.1-1.5-8.9-4.1-11.3c-2.6-2.4-6.4-3.7-11.5-3.7l-11.4,0l0,48H35.7z"/>
	<path class="st0" d="M88.2,78.9c-6.6-5.6-10-13.7-10.4-24.2c-0.1-2.2-0.1-5.9-0.1-10.9c0-5,0-8.7,0.1-11
		C78,22.7,81.5,14.9,88.2,9.3C94.9,3.7,104,1,115.4,1c7.7,0,14.4,1.2,20.1,3.7c5.7,2.5,10.1,5.7,13.1,9.5c3,3.9,4.6,7.9,4.7,11.9
		c0,0.7-0.3,1.3-0.8,1.9c-0.5,0.5-1.1,0.8-1.9,0.8l-18.6,0c-0.8,0-1.4-0.1-1.9-0.4c-0.4-0.3-0.9-0.7-1.3-1.3c-1-2.2-2.5-4.2-4.6-5.8
		c-2.1-1.6-5.1-2.4-8.9-2.4c-9.3,0-14.1,4.8-14.4,14.4c-0.1,2.2-0.1,5.7-0.1,10.3c0,4.6,0,8.1,0.1,10.4c0.3,10.2,5.2,15.2,14.6,15.2
		c4.6,0,8.3-1.2,11-3.5c2.7-2.3,4.1-5.8,4.1-10.6v-2.2h-10.7c-0.9,0-1.6-0.3-2.2-0.9c-0.6-0.6-0.9-1.3-0.9-2.2l0-9.4
		c0-0.9,0.3-1.6,0.9-2.2c0.6-0.6,1.3-0.9,2.2-0.9l30.5,0c0.9,0,1.6,0.3,2.2,0.9c0.6,0.6,0.9,1.3,0.9,2.2v13.9
		c0,6.8-1.6,12.7-4.7,17.6c-3.2,4.9-7.6,8.7-13.4,11.3c-5.8,2.6-12.5,3.9-20.2,3.9C103.8,87.4,94.7,84.6,88.2,78.9z"/>
</g>
<text transform="matrix(1 0 0 1 393.5293 304.6328)" style="font-family:'MyriadPro-Regular'; font-size:11.9249px;">d23a07</text>
<text transform="matrix(1 0 0 1 396 306)" style="font-family:'MyriadPro-Regular'; font-size:12px;">d23a07</text>
</svg>
