<?xml version="1.0" encoding="utf-8"?>
<!-- Generator: Adobe Illustrator 23.0.1, SVG Export Plug-In . SVG Version: 6.00 Build 0)  -->
<svg version="1.1" id="Layer_1" xmlns="http://www.w3.org/2000/svg" xmlns:xlink="http://www.w3.org/1999/xlink" x="0px" y="0px"
	 viewBox="0 0 176.7 87.8" style="enable-background:new 0 0 176.7 87.8;" xml:space="preserve">
<path d="M0.7,0.2h38.7C48.7,0.2,56.9,2,64,5.6c7.1,3.6,12.6,8.7,16.6,15.2c3.9,6.5,5.9,14.1,5.9,22.8c0,8.7-2,16.3-5.9,22.8
	C76.7,72.9,71.1,78,64,81.6C56.9,85.2,48.7,87,39.5,87H0.7V0.2z M38.5,70.5c8.5,0,15.3-2.4,20.4-7.3c5.1-4.8,7.6-11.4,7.6-19.7
	c0-8.3-2.5-14.8-7.6-19.7c-5.1-4.8-11.9-7.3-20.4-7.3h-18v53.8H38.5z"/>
<path d="M156.1,42.6h18v34.2c-4.6,3.4-10,6.1-16.1,7.9c-6.1,1.8-12.2,2.8-18.4,2.8c-8.9,0-16.8-1.9-23.9-5.6
	c-7.1-3.7-12.6-8.9-16.6-15.5c-4-6.6-6-14.1-6-22.4c0-8.3,2-15.8,6-22.4c4-6.6,9.6-11.8,16.7-15.5c7.1-3.7,15.2-5.6,24.1-5.6
	c7.5,0,14.3,1.2,20.3,3.7c6.1,2.5,11.2,6.1,15.3,10.8l-12.7,11.6c-6.1-6.3-13.4-9.5-22-9.5c-5.4,0-10.3,1.1-14.5,3.4
	c-4.2,2.2-7.5,5.4-9.9,9.5c-2.4,4.1-3.5,8.8-3.5,14.1c0,5.2,1.2,9.9,3.5,14c2.4,4.1,5.6,7.3,9.8,9.6c4.2,2.3,9,3.4,14.3,3.4
	c5.7,0,10.8-1.2,15.3-3.6V42.6z"/>
</svg>
