<?xml version="1.0" encoding="utf-8"?>
<!-- Generator: Adobe Illustrator 15.0.2, SVG Export Plug-In . SVG Version: 6.00 Build 0)  -->
<!DOCTYPE svg PUBLIC "-//W3C//DTD SVG 1.1//EN" "http://www.w3.org/Graphics/SVG/1.1/DTD/svg11.dtd">
<svg version="1.1" id="Layer_1" xmlns="http://www.w3.org/2000/svg" xmlns:xlink="http://www.w3.org/1999/xlink" x="0px" y="0px"
	 width="579px" height="112px" viewBox="95 26 579 112" enable-background="new 95 26 579 112" xml:space="preserve">
<g>
	<path fill="#FFFFFF" d="M341.881,75.703c2.703,2.857,4.055,7.053,4.055,12.587c0,5.837-1.322,10.286-3.963,13.347
		c-2.643,3.062-6.043,4.59-10.205,4.59c-2.654,0-4.855-0.658-6.61-1.976c-0.959-0.729-1.897-1.793-2.815-3.19v17.269h-8.574V72.146
		h8.301v4.896c0.938-1.44,1.938-2.574,2.998-3.406c1.938-1.479,4.242-2.219,6.916-2.219
		C335.879,71.416,339.178,72.844,341.881,75.703z M335.23,81.936c-1.178-1.966-3.086-2.949-5.729-2.949
		c-3.173,0-5.354,1.49-6.542,4.469c-0.614,1.582-0.921,3.587-0.921,6.02c0,3.853,1.031,6.558,3.1,8.117
		c1.229,0.913,2.682,1.369,4.362,1.369c2.437,0,4.296-0.934,5.576-2.797c1.278-1.864,1.92-4.348,1.92-7.449
		C336.998,86.161,336.409,83.9,335.23,81.936z"/>
	<path fill="#FFFFFF" d="M365.172,85.127c1.614-0.203,2.768-0.456,3.461-0.76c1.245-0.527,1.868-1.348,1.868-2.462
		c0-1.358-0.478-2.296-1.433-2.813c-0.955-0.517-2.357-0.773-4.207-0.773c-2.075,0-3.545,0.506-4.407,1.52
		c-0.617,0.75-1.028,1.764-1.231,3.04h-8.363c0.185-2.899,0.998-5.278,2.445-7.146c2.299-2.918,6.248-4.377,11.846-4.377
		c3.646,0,6.882,0.72,9.711,2.16c2.828,1.438,4.244,4.154,4.244,8.146v15.202c0,1.054,0.02,2.331,0.062,3.831
		c0.06,1.135,0.231,1.906,0.517,2.311c0.283,0.406,0.709,0.739,1.275,1.003v1.276h-9.425c-0.265-0.669-0.445-1.297-0.548-1.885
		c-0.102-0.588-0.182-1.256-0.242-2.006c-1.202,1.297-2.59,2.401-4.159,3.312c-1.876,1.074-3.997,1.611-6.36,1.611
		c-3.019,0-5.51-0.856-7.478-2.569c-1.968-1.712-2.951-4.14-2.951-7.281c0-4.073,1.582-7.022,4.747-8.848
		c1.734-0.992,4.289-1.701,7.657-2.127L365.172,85.127z M370.471,89.171c-0.554,0.347-1.115,0.624-1.679,0.836
		c-0.565,0.213-1.341,0.41-2.327,0.593l-1.973,0.365c-1.85,0.325-3.178,0.721-3.983,1.186c-1.364,0.791-2.046,2.018-2.046,3.679
		c0,1.479,0.417,2.55,1.25,3.208c0.833,0.66,1.848,0.988,3.041,0.988c1.895,0,3.637-0.547,5.23-1.643
		c1.597-1.094,2.425-3.09,2.486-5.988V89.171L370.471,89.171z"/>
	<path fill="#FFFFFF" d="M383.271,78.621v-6.172h4.621v-9.243h8.573v9.243h5.38v6.172h-5.38v17.513c0,1.358,0.173,2.204,0.517,2.538
		c0.345,0.334,1.398,0.502,3.162,0.502c0.264,0,0.543-0.005,0.836-0.015c0.293-0.011,0.582-0.025,0.867-0.046v6.476l-4.104,0.152
		c-4.095,0.141-6.892-0.567-8.392-2.128c-0.973-0.993-1.459-2.523-1.459-4.592V78.622L383.271,78.621L383.271,78.621z"/>
	<path fill="#FFFFFF" d="M406.497,78.621v-6.172h4.621v-9.243h8.573v9.243h5.381v6.172h-5.381v17.513
		c0,1.358,0.172,2.204,0.517,2.538s1.399,0.502,3.163,0.502c0.262,0,0.541-0.005,0.836-0.015c0.293-0.011,0.582-0.025,0.865-0.046
		v6.476l-4.104,0.152c-4.095,0.141-6.892-0.567-8.392-2.128c-0.973-0.993-1.459-2.523-1.459-4.592V78.622L406.497,78.621
		L406.497,78.621z"/>
	<path fill="#FFFFFF" d="M453.477,72.816c2.312,1.035,4.222,2.67,5.729,4.903c1.355,1.968,2.236,4.253,2.641,6.851
		c0.231,1.522,0.328,3.715,0.284,6.578h-24.136c0.134,3.324,1.29,5.653,3.466,6.992c1.322,0.832,2.915,1.248,4.776,1.248
		c1.976,0,3.578-0.508,4.812-1.521c0.673-0.547,1.269-1.309,1.784-2.281h8.846c-0.232,1.966-1.304,3.963-3.211,5.99
		c-2.97,3.223-7.126,4.834-12.468,4.834c-4.41,0-8.304-1.359-11.674-4.078c-3.371-2.718-5.058-7.141-5.058-13.268
		c0-5.74,1.521-10.144,4.564-13.207c3.043-3.062,6.993-4.596,11.852-4.596C448.566,71.264,451.165,71.781,453.477,72.816z
		 M440.514,80.302c-1.224,1.263-1.992,2.974-2.309,5.13h14.929c-0.157-2.301-0.927-4.045-2.308-5.236
		c-1.383-1.19-3.096-1.785-5.141-1.785C443.463,78.409,441.738,79.041,440.514,80.302z"/>
	<path fill="#FFFFFF" d="M483.676,71.371c0.11,0.01,0.359,0.023,0.745,0.045v8.877c-0.548-0.061-1.035-0.102-1.46-0.122
		c-0.426-0.021-0.771-0.03-1.033-0.03c-3.486,0-5.828,1.135-7.023,3.405c-0.668,1.277-1.002,3.243-1.002,5.897v15.841h-8.727v-33.14
		h8.27v5.776c1.339-2.209,2.504-3.72,3.496-4.53c1.621-1.357,3.729-2.037,6.324-2.037C483.427,71.354,483.564,71.359,483.676,71.371
		z"/>
	<path fill="#FFFFFF" d="M516.223,74.045c2.168,1.794,3.254,4.77,3.254,8.923v22.316h-8.879V85.127c0-1.743-0.229-3.08-0.693-4.013
		c-0.846-1.703-2.456-2.554-4.829-2.554c-2.918,0-4.921,1.246-6.007,3.738c-0.562,1.317-0.844,3-0.844,5.047v17.938h-8.666V72.206
		h8.393v4.834c1.109-1.703,2.158-2.929,3.146-3.679c1.776-1.338,4.027-2.008,6.752-2.008
		C511.26,71.354,514.051,72.251,516.223,74.045z"/>
	<path fill="#FFFFFF" d="M550.104,72.329c1.666,0.71,3.031,1.796,4.103,3.256c0.907,1.238,1.462,2.511,1.666,3.819
		c0.198,1.308,0.301,3.443,0.301,6.404v19.476h-8.846V85.104c0-1.785-0.304-3.227-0.904-4.321c-0.786-1.542-2.276-2.312-4.468-2.312
		c-2.271,0-3.998,0.767-5.176,2.298c-1.176,1.531-1.766,3.719-1.766,6.559v17.958h-8.666V60.621h8.666v15.811
		c1.25-1.926,2.699-3.269,4.342-4.027c1.646-0.76,3.377-1.141,5.193-1.141C546.586,71.264,548.439,71.62,550.104,72.329z"/>
	<path fill="#FFFFFF" d="M584.671,72.816c2.312,1.035,4.222,2.67,5.728,4.903c1.355,1.968,2.237,4.253,2.64,6.851
		c0.233,1.522,0.33,3.715,0.286,6.578h-24.137c0.136,3.324,1.289,5.653,3.465,6.992c1.324,0.832,2.916,1.248,4.777,1.248
		c1.975,0,3.578-0.508,4.812-1.521c0.673-0.547,1.267-1.309,1.781-2.281h8.848c-0.232,1.966-1.305,3.963-3.213,5.99
		c-2.967,3.223-7.124,4.834-12.469,4.834c-4.408,0-8.301-1.359-11.672-4.078c-3.371-2.718-5.058-7.141-5.058-13.268
		c0-5.74,1.522-10.144,4.565-13.207c3.043-3.062,6.994-4.596,11.852-4.596C579.761,71.264,582.359,71.781,584.671,72.816z
		 M571.708,80.302c-1.226,1.263-1.994,2.974-2.31,5.13h14.93c-0.158-2.301-0.928-4.045-2.309-5.236
		c-1.381-1.19-3.097-1.785-5.141-1.785C574.656,78.409,572.934,79.041,571.708,80.302z"/>
	<path fill="#FFFFFF" d="M616.115,71.371c0.11,0.01,0.358,0.023,0.744,0.045v8.877c-0.55-0.061-1.035-0.102-1.459-0.122
		c-0.427-0.021-0.772-0.03-1.034-0.03c-3.487,0-5.828,1.135-7.024,3.405c-0.669,1.277-1.002,3.243-1.002,5.897v15.841h-8.725v-33.14
		h8.269v5.776c1.338-2.209,2.502-3.72,3.495-4.53c1.622-1.357,3.73-2.037,6.325-2.037C615.866,71.354,616.002,71.359,616.115,71.371
		z"/>
	<path fill="#FFFFFF" d="M649.573,101.23c-2.797,3.453-7.044,5.18-12.739,5.18c-5.694,0-9.941-1.727-12.739-5.18
		c-2.796-3.451-4.193-7.608-4.193-12.47c0-4.778,1.397-8.921,4.193-12.425c2.798-3.503,7.045-5.256,12.739-5.256
		c5.695,0,9.942,1.752,12.739,5.256c2.796,3.504,4.195,7.646,4.195,12.425C653.77,93.622,652.369,97.779,649.573,101.23z
		 M642.643,96.441c1.356-1.801,2.037-4.361,2.037-7.681s-0.681-5.875-2.037-7.666c-1.357-1.79-3.305-2.686-5.839-2.686
		s-4.483,0.896-5.851,2.686c-1.372,1.791-2.054,4.347-2.054,7.666s0.682,5.88,2.054,7.681c1.366,1.802,3.315,2.701,5.851,2.701
		S641.284,98.243,642.643,96.441z"/>
</g>
<g>
	<path fill="#FF4715" d="M206.636,62.046c-2.457-3.574-2.204-7.329-2.012-10.15c-3.539,0.876-5.501,1.264-10.036,1.264
		c-15.176,0-13.23-4.67-42.417-4.67c-29.188,0-45.727,17.902-45.727,17.902c14.594,0.388,27.121,6.781,37.562,15.537
		c11.542,9.683,23.206,11.54,29.267,13.406l5.99-3.882l-37.044-26.129l42.296,22.726l6.372-4.128l-21.114-17.804l25.629,14.878
		l3.469-2.248h5.01l-11.021-16.701H206.636L206.636,62.046z"/>
	<g>
		<circle fill="#FFFFFF" cx="227.083" cy="53.68" r="18.939"/>
	</g>
	<polygon fill="#FFFFFF" points="248.356,127.878 248.356,99.339 259.514,105.308 250.978,114.131 250.978,127.878 261.071,127.878 
		281.954,99.081 254.714,81.568 245.764,81.568 256.193,65.223 246.465,65.223 227.473,83.125 208.473,65.223 198.744,65.223 
		209.174,81.568 200.225,81.568 172.983,99.081 193.87,127.878 204.034,127.878 204.034,114.131 195.498,105.308 206.654,99.339 
		206.654,127.878 	"/>
</g>
</svg>
